<?xml version="1.0" encoding="UTF-8"?>
<svg xmlns="http://www.w3.org/2000/svg" xmlns:xlink="http://www.w3.org/1999/xlink" width="300px" height="300px" viewBox="0 0 300 300" version="1.1">
<g id="surface1">
<path style="fill-rule:evenodd;fill:rgb(100%,100%,100%);fill-opacity:1;stroke-width:7.5;stroke-linecap:butt;stroke-linejoin:miter;stroke:rgb(0%,0%,0%);stroke-opacity:1;stroke-miterlimit:4;" d="M 5.000625 5.000625 L 155.000623 5.000625 L 155.000623 155.000623 L 5.000625 155.000623 Z M 5.000625 5.000625 " transform="matrix(1.874766,0,0,1.874766,0,0)"/>
<path style=" stroke:none;fill-rule:nonzero;fill:rgb(0%,0%,0%);fill-opacity:1;" d="M 206.175781 216.050781 L 206.175781 252.375 L 93.785156 252.375 C 94.972656 238.652344 98.675781 225.59375 104.847656 213.203125 C 111.023438 200.855469 122.988281 184.570312 140.792969 164.4375 C 154.894531 148.4375 163.585938 137.5625 166.8125 131.914062 C 171.65625 123.652344 174.03125 115.34375 174.03125 106.984375 C 174.03125 98.105469 172.035156 91.363281 168.09375 86.855469 C 164.105469 82.296875 158.835938 80.015625 152.332031 80.015625 C 138.183594 80.015625 130.488281 90.652344 129.398438 111.875 L 97.539062 107.984375 C 99.484375 87.1875 105.277344 71.945312 114.867188 62.210938 C 124.460938 52.476562 137.230469 47.585938 153.1875 47.585938 C 170.707031 47.585938 183.90625 53.332031 192.832031 64.726562 C 201.710938 76.121094 206.175781 89.179688 206.175781 103.949219 C 206.175781 112.304688 205.035156 120.375 202.757812 128.210938 C 200.523438 136.046875 197.011719 143.925781 192.261719 151.855469 C 187.5625 159.785156 179.679688 169.945312 168.617188 182.246094 C 158.3125 193.878906 151.808594 201.523438 149.101562 205.226562 C 146.347656 208.929688 144.164062 212.539062 142.453125 216.050781 Z M 206.175781 216.050781 "/>
</g>
</svg>
